<svg id="Layer_1" data-name="Layer 1" xmlns="http://www.w3.org/2000/svg" viewBox="0 0 1000 1000"><defs><style>.cls-1{fill:#12100b;}.cls-2{fill:#416f8b;}</style></defs><title>AHC</title><path class="cls-1" d="M403.62,589.7,401.3,466.82l-52.87.19L262.54,588.12l48.25.73,9.45-15,35.69.08-.05,14.22Zm-65.51-44.06,23.82-41.3-3.57,40.9Z"/><polygon class="cls-1" points="458.02 466.62 502.09 466.62 488.19 507.52 518.36 507.52 533.46 466.62 575.14 466.62 534.65 587.72 490.57 587.72 506.06 545.24 474.3 545.24 459.61 587.72 415.54 588.12 458.02 466.62"/><path class="cls-1" d="M626.76,472.18c12.54-5.24,25.71-8.1,36.53-7.94a75.08,75.08,0,0,1,27.79,5.56l-14.29,45.26s-9.59-13.49-23.42-13.1c-15.28.43-34.94,15.38-34.94,30.18,0,12.41,6.74,22.23,20.64,21.43,13.56-.77,28.59-12.7,28.59-12.7l-16.28,45.26s-30.48,8.35-53,2C581.44,583.36,570,566.87,570,544.44,570,519.29,597.75,484.31,626.76,472.18Z"/><path class="cls-2" d="M545.77,363.79C394.9,363.79,272.6,428,272.6,507.12a77,77,0,0,0,.89,11.58C277,449.93,384.42,394.76,516.38,394.76c134.21,0,243,57.06,243,127.45S650.84,649.52,516.86,649.66q14.25.78,28.91.79c150.86,0,273.16-64.17,273.16-143.33S696.63,363.79,545.77,363.79Z"/></svg>